#!OML:ASF F:\twosubjects\two\wednesday\Session 1\rory1.ASF
:FULLY-SPECIFIED
:DEGREES
1045
root 7.80346 13.5616 13.4545 -173.479 17.4867 173.605
lowerback 28.621 3.36767 -6.93588
upperback 6.66613 3.66698 -5.47294
thorax -8.2071 2.58443 -3.54997
lowerneck -16.2184 -1.59855 0.285994
upperneck -7.89134 -0.906902 -0.604099
head 0.175535 0.0914567 -0.277681
rclavicle 0 4.37326e-015
rhumerus 37.297 -3.49181 -39.6648
rradius 92.8917
rwrist -16.2281
rhand -19.7668 45.4779
rfingers 7.12502
rthumb 6.56497 15.5997
lclavicle 0 4.37326e-015
lhumerus -23.9039 8.27707 54.3962
lradius 110.862
lwrist 26.3923
lhand -25.8622 11.5208
lfingers 7.12502
lthumb 0.678819 41.4995
rfemur -74.1125 6.14855 2.30996
rtibia 96.8712
rfoot -26.5997 -6.38663
rtoes -3.94418
lfemur -68.8892 18.8679 -27.7979
ltibia 97.2314
lfoot -31.8846 -0.511827
ltoes -22.2822
1046
root 7.83481 13.4699 13.4849 -173.085 16.1789 175.125
lowerback 28.1213 2.83905 -5.82038
upperback 7.21546 3.47558 -4.84101
thorax -7.34254 2.48419 -3.31774
lowerneck -16.3091 -1.4993 0.462445
upperneck -8.21784 -0.755539 -0.561462
head 0.0838108 0.185974 -0.286568
rclavicle 3.10104e-014 -2.90226e-014
rhumerus 36.6233 -4.02359 -40.1651
rradius 93.9916
rwrist -16.2933
rhand -19.3859 45.2187
rfingers 7.12502
rthumb 6.93264 15.3522
lclavicle 3.10104e-014 -2.90226e-014
lhumerus -21.6433 8.10794 53.9605
lradius 110.29
lwrist 26.3595
lhand -26.0477 11.2903
lfingers 7.12502
lthumb 0.499691 41.2694
rfemur -74.1799 5.65866 4.07624
rtibia 97.5814
rfoot -26.5416 -7.01738
rtoes -4.59586
lfemur -69.8091 18.4161 -26.0702
ltibia 98.3607
lfoot -31.9014 -0.617115
ltoes -23.5173
1047
root 7.84851 13.4056 13.4573 -173.114 15.6452 176.567
lowerback 27.9032 2.72226 -4.89017
upperback 7.59388 3.69252 -4.26183
thorax -6.81064 2.58312 -3.22631
lowerneck -16.6668 -1.42789 0.805758
upperneck -8.13741 -0.700145 -0.704422
head 0.165418 0.211263 -0.387089
rclavicle -4.57205e-014 6.12257e-014
rhumerus 35.2183 -4.311 -40.6124
rradius 95.1063
rwrist -16.0028
rhand -19.8434 45.4088
rfingers 7.12502
rthumb 6.49104 15.5282
lclavicle -4.57205e-014 6.12257e-014
lhumerus -19.3778 7.2903 53.7459
lradius 109.698
lwrist 25.695
lhand -27.2978 11.9798
lfingers 7.12502
lthumb -0.70774 41.9584
rfemur -73.7223 5.6374 5.59367
rtibia 98.093
rfoot -26.7139 -7.37662
rtoes -5.37087
lfemur -69.8817 18.5986 -24.496
ltibia 99.3175
lfoot -32.2512 -0.8331
ltoes -23.7758
1048
root 7.8799 13.3317 13.4654 -173.013 14.5424 177.818
lowerback 28.1501 2.53936 -4.32111
upperback 7.65392 3.62726 -3.57045
thorax -6.89092 2.53322 -2.77193
lowerneck -17.1996 -1.35244 1.01216
upperneck -7.72259 -0.646738 -0.685383
head 0.386291 0.227194 -0.415346
rclavicle -1.63003e-014 9.93923e-015
rhumerus 33.6499 -4.43176 -41.1116
rradius 96.0271
rwrist -15.4421
rhand -20.8411 46.22
rfingers 7.12502
rthumb 5.52776 16.3121
lclavicle -1.63003e-014 9.93923e-015
lhumerus -17.4906 6.25766 53.3899
lradius 109.418
lwrist 24.7884
lhand -29.14 13.3907
lfingers 7.12502
lthumb -2.48695 43.3559
rfemur -73.605 5.29152 6.9756
rtibia 98.7671
rfoot -27.3077 -7.41446
rtoes -3.99999
lfemur -70.3877 18.3144 -23.0353
ltibia 100.219
lfoot -32.3032 -1.32834
ltoes -23.5299
1049
root 7.94119 13.2432 13.5113 -172.559 13.2156 179.323
lowerback 28.3275 2.35339 -3.92068
upperback 7.57132 3.48941 -2.69469
thorax -7.11768 2.43349 -1.99556
lowerneck -17.2469 -1.34322 0.945019
upperneck -7.49644 -0.649199 -0.467898
head 0.468869 0.21865 -0.336112
rclavicle 5.78463e-014 -4.81059e-014
rhumerus 31.985 -4.50516 -41.5676
rradius 97.1145
rwrist -15.0612
rhand -21.0405 46.279
rfingers 7.12502
rthumb 5.33525 16.3662
lclavicle 5.78463e-014 -4.81059e-014
lhumerus -15.4563 5.65485 52.8705
lradius 109.021
lwrist 24.7033
lhand -30.013 13.516
lfingers 7.12502
lthumb -3.33001 43.4697
rfemur -74.0035 5.29576 8.75048
rtibia 99.4916
rfoot -27.6871 -8.19238
rtoes -3.83235
lfemur -71.5457 18.1374 -21.1723
ltibia 101.145
lfoot -31.8048 -2.50789
ltoes -22.2343
1050
root 7.9998 13.1476 13.5531 -172.088 11.9085 180.732
lowerback 28.5047 2.25882 -3.52809
upperback 7.44776 3.47778 -1.84761
thorax -7.38574 2.39848 -1.29141
lowerneck -17.1568 -1.42738 1.18413
upperneck -7.43359 -0.821297 -0.692518
head 0.472207 0.115774 -0.456295
rclavicle -2.50469e-014 3.26007e-014
rhumerus 29.8973 -4.73892 -41.8209
rradius 98.3458
rwrist -14.8429
rhand -20.5555 46.0916
rfingers 7.12502
rthumb 5.80351 16.191
lclavicle -2.50469e-014 3.26007e-014
lhumerus -12.8646 5.03054 52.4175
lradius 108.293
lwrist 24.9736
lhand -29.2799 12.4227
lfingers 7.12502
lthumb -2.62203 42.3864
rfemur -74.5149 5.02447 10.5198
rtibia 100.156
rfoot -27.777 -9.24942
rtoes -4.90956
lfemur -72.8339 17.7771 -19.4198
ltibia 102.047
lfoot -31.2758 -3.44561
ltoes -20.8117
1051
root 8.05639 13.0657 13.5862 -171.914 10.7243 181.852
lowerback 28.8667 2.1562 -3.46612
upperback 7.35569 3.38838 -1.0417
thorax -7.7148 2.34377 -0.425779
lowerneck -17.211 -1.42827 1.1573
upperneck -7.49129 -0.806963 -0.763792
head 0.46215 0.127315 -0.473604
rclavicle -3.1408e-014 1.27222e-014
rhumerus 28.0505 -4.7557 -42.0893
rradius 99.4212
rwrist -14.6946
rhand -20.8619 46.9734
rfingers 7.12502
rthumb 5.50773 17.0649
lclavicle -3.1408e-014 1.27222e-014
lhumerus -10.6013 4.53838 51.7447
lradius 107.814
lwrist 25.3452
lhand -28.7129 12.2594
lfingers 7.12502
lthumb -2.07443 42.2291
rfemur -74.8116 4.71622 11.9918
rtibia 100.766
rfoot -27.9546 -9.99425
rtoes -4.63286
lfemur -73.7484 17.6235 -18.0046
ltibia 102.811
lfoot -30.9985 -4.19598
ltoes -19.3223
1052
root 8.11648 12.9985 13.621 -171.921 9.51511 182.778
lowerback 29.2438 1.94722 -3.60029
upperback 7.34662 3.13565 -0.353228
thorax -7.9467 2.22947 0.486459
lowerneck -16.9536 -1.35488 0.904742
upperneck -7.87247 -0.633054 -0.449086
head 0.298194 0.238367 -0.321321
rclavicle -1.25234e-014 8.34896e-015
rhumerus 26.5217 -4.68074 -42.5653
rradius 100.354
rwrist -14.7302
rhand -21.3933 47.7427
rfingers 7.12502
rthumb 4.99458 17.8216
lclavicle -1.25234e-014 8.34896e-015
lhumerus -8.46861 4.29511 50.8706
lradius 107.443
lwrist 25.6871
lhand -28.5883 12.6566
lfingers 7.12502
lthumb -1.95409 42.6274
rfemur -74.8673 4.4896 13.2518
rtibia 101.304
rfoot -27.9688 -10.997
rtoes -5.23179
lfemur -74.4625 17.6404 -16.8176
ltibia 103.432
lfoot -30.7167 -5.09032
ltoes -18.3211
1053
root 8.17978 12.922 13.6554 -171.653 8.11313 183.776
lowerback 29.3672 1.77295 -3.56182
upperback 7.29142 2.97568 0.318933
thorax -8.09919 2.15347 1.26448
lowerneck -16.5484 -1.40092 1.15461
upperneck -8.35868 -0.705352 -0.542665
head 0.0730043 0.208527 -0.39425
rclavicle 6.55989e-015 -5.56597e-015
rhumerus 24.6547 -4.94579 -42.9008
rradius 101.175
rwrist -14.8215
rhand -21.4372 47.8235
rfingers 7.12502
rthumb 4.95216 17.9013
lclavicle 6.55989e-015 -5.56597e-015
lhumerus -5.79573 3.76105 50.2282
lradius 106.664
lwrist 25.3204
lhand -28.783 12.4572
lfingers 7.12502
lthumb -2.14214 42.4262
rfemur -75.2472 4.11455 14.6058
rtibia 101.911
rfoot -27.7138 -12.1582
rtoes -6.65766
lfemur -75.6981 17.3861 -15.5476
ltibia 104.102
lfoot -30.3669 -5.88972
ltoes -18.4496
